#!OML:ASF F:\VICON\USERDATA\INSTALL\rory3\rory3.ASF
:FULLY-SPECIFIED
:DEGREES
302
root 0.857189 19.1398 2.01066 4.01739 -1.61383 2.58815
lowerback 14.1035 0.998963 -2.6335
upperback 3.02399 1.10174 3.07397
thorax -4.81832 0.589068 4.5428
lowerneck -6.51236 -3.35908 -12.0905
upperneck 34.3137 -3.46763 2.96983
head 12.8362 -2.68347 2.84158
rclavicle 1.51076e-014 -1.11319e-014
rhumerus -48.9756 7.40398 -79.3792
rradius 64.1447
rwrist 4.59987
rhand -16.9089 7.63924
rfingers 7.12502
rthumb 9.32326 -22.1346
lclavicle 1.51076e-014 -1.11319e-014
lhumerus -65.4412 -8.78576 61.5296
lradius 60.1999
lwrist 0.296423
lhand -20.9912 19.8806
lfingers 7.12502
lthumb 5.38283 49.7923
rfemur -30.1601 -0.12999 16.4942
rtibia 26.3103
rfoot 27.6782 -5.05689
rtoes 15.8224
lfemur -27.1158 -1.10668 -20.4498
ltibia 20.4601
lfoot 26.3501 0.926747
ltoes -9.89507
303
root 0.855923 18.7451 2.22397 3.40158 -1.36569 2.44663
lowerback 14.2844 1.07483 -2.29443
upperback 3.04311 1.24847 3.05495
thorax -4.90455 0.658103 4.30077
lowerneck -7.31124 -3.57005 -11.895
upperneck 34.5961 -3.73032 3.05109
head 13.1474 -2.76658 2.80051
rclavicle -9.54166e-015 -3.18055e-014
rhumerus -48.9895 6.56686 -79.1714
rradius 63.7128
rwrist 5.21776
rhand -18.1411 8.69413
rfingers 7.12502
rthumb 8.13415 -21.1293
lclavicle -9.54166e-015 -3.18055e-014
lhumerus -65.5454 -8.44517 60.4971
lradius 60.8535
lwrist 0.274511
lhand -21.0099 19.601
lfingers 7.12502
lthumb 5.36477 49.5131
rfemur -29.7748 -0.414492 16.7374
rtibia 27.5887
rfoot 27.1407 -4.08774
rtoes 17.3506
lfemur -27.3664 -0.567536 -20.6739
ltibia 22.8051
lfoot 25.3605 0.457229
ltoes -10.2635
304
root 0.852339 18.3341 2.42786 2.76682 -1.17319 1.86346
lowerback 14.5311 1.13174 -1.59906
upperback 3.03687 1.43334 3.18232
thorax -5.0506 0.742631 4.00304
lowerneck -7.80657 -3.73627 -11.755
upperneck 34.4395 -3.95296 3.10873
head 13.2014 -2.83098 2.76024
rclavicle -3.4191e-014 -2.22639e-014
rhumerus -48.9229 5.65169 -78.8983
rradius 63.5982
rwrist 5.06153
rhand -18.768 8.7342
rfingers 7.12502
rthumb 7.52904 -21.1118
lclavicle -3.4191e-014 -2.22639e-014
lhumerus -65.8277 -7.82454 59.4431
lradius 61.6624
lwrist 0.338595
lhand -21.6321 19.2453
lfingers 7.12502
lthumb 4.76401 49.1717
rfemur -29.6763 -0.720539 17.5763
rtibia 30.2241
rfoot 21.4175 -2.85418
rtoes 6.39202
lfemur -27.9773 -0.350453 -20.2322
ltibia 26.1125
lfoot 23.0788 -0.148463
ltoes -13.7416
305
root 0.854426 17.883 2.60888 2.21865 -1.04187 1.28124
lowerback 14.9962 1.19389 -0.903398
upperback 2.92558 1.63608 3.34793
thorax -5.42588 0.838483 3.74023
lowerneck -8.5649 -3.88151 -11.6813
upperneck 34.2487 -4.09828 3.1677
head 13.2931 -2.86702 2.73787
rclavicle 1.74931e-014 -9.54166e-015
rhumerus -48.6755 4.67992 -78.4954
rradius 63.5433
rwrist 4.29657
rhand -19.0453 8.22103
rfingers 7.12502
rthumb 7.26143 -21.6344
lclavicle 1.74931e-014 -9.54166e-015
lhumerus -65.6539 -6.92632 58.4417
lradius 61.7346
lwrist 0.237814
lhand -22.5909 19.0027
lfingers 7.12502
lthumb 3.83821 48.9479
rfemur -29.591 -1.67996 18.7111
rtibia 33.5628
rfoot 8.55269 -0.326006
rtoes 5.9924
lfemur -28.9614 0.282305 -19.9702
ltibia 30.407
lfoot 11.0105 -2.05448
ltoes 4.80175
306
root 0.862092 17.4329 2.75322 1.73559 -0.930512 0.953693
lowerback 15.5947 1.24344 -0.42283
upperback 2.83233 1.79245 3.42963
thorax -5.8519 0.911769 3.51705
lowerneck -9.43346 -4.0192 -11.7101
upperneck 33.924 -4.25471 3.40376
head 13.3582 -2.89485 2.79804
rclavicle -1.98785e-014 3.18055e-015
rhumerus -48.0788 3.57274 -78.157
rradius 62.9544
rwrist 4.0241
rhand -19.5482 7.66652
rfingers 7.12502
rthumb 6.776 -22.2051
lclavicle -1.98785e-014 3.18055e-015
lhumerus -65.404 -5.65748 57.3732
lradius 61.8576
lwrist 0.561964
lhand -24.0496 18.9187
lfingers 7.12502
lthumb 2.42941 48.8847
rfemur -30.0196 -2.76637 19.6352
rtibia 37.6195
rfoot 1.90959 -0.81609
rtoes -1.57276
lfemur -29.5017 1.79611 -20.4079
ltibia 35.1861
lfoot 1.86629 -4.22648
ltoes -12.5984
307
root 0.873204 17.1787 2.85558 1.30974 -0.619206 1.01683
lowerback 16.1991 1.24132 -0.270603
upperback 2.86937 1.8218 3.41496
thorax -6.139 0.924411 3.40332
lowerneck -10.4612 -4.24985 -11.7645
upperneck 33.4151 -4.5083 3.61478
head 13.3897 -2.96449 2.8317
rclavicle -1.59028e-014 1.74931e-014
rhumerus -46.9089 2.28834 -77.7794
rradius 61.7567
rwrist 4.73307
rhand -19.7832 6.68629
rfingers 7.12502
rthumb 6.5491 -23.1924
lclavicle -1.59028e-014 1.74931e-014
lhumerus -65.0618 -3.86889 56.3391
lradius 62.1149
lwrist 1.29436
lhand -26.1593 18.488
lfingers 7.12502
lthumb 0.391925 48.4674
rfemur -30.9219 -3.29091 19.8061
rtibia 41.7554
rfoot -3.00621 -0.744294
rtoes 2.53696
lfemur -31.1116 2.49796 -21.0594
ltibia 40.2273
lfoot -1.44581 -2.60198
ltoes -10.4882
308
root 0.882279 16.8918 2.94689 0.940509 -0.352747 0.952675
lowerback 17.0621 1.18064 -0.0738319
upperback 2.81118 1.79473 3.44694
thorax -6.6652 0.910636 3.32505
lowerneck -11.084 -4.40447 -11.9195
upperneck 32.6018 -4.7093 3.93157
head 13.2042 -3.00737 2.93164
rclavicle -1.19271e-014 -9.54166e-015
rhumerus -45.5357 1.14723 -77.5432
rradius 60.1038
rwrist 5.39059
rhand -20.0362 5.83511
rfingers 7.12502
rthumb 6.30488 -24.0511
lclavicle -1.19271e-014 -9.54166e-015
lhumerus -64.6517 -1.6377 55.35
lradius 62.1985
lwrist 2.26182
lhand -26.8045 20.4821
lfingers 7.12502
lthumb -0.231241 50.4617
rfemur -32.5658 -2.78005 19.7458
rtibia 46.0769
rfoot -6.45533 -1.83412
rtoes 12.1996
lfemur -33.1343 2.44908 -21.2711
ltibia 45.104
lfoot -6.50829 -2.54721
ltoes -5.29124
309
root 0.892701 16.5895 3.0203 0.795928 -0.49642 0.845751
lowerback 17.9284 1.16327 0.0270696
upperback 2.64782 1.81455 3.48775
thorax -7.31305 0.922585 3.30212
lowerneck -11.1029 -4.38079 -12.2321
upperneck 31.4297 -4.73809 4.42244
head 12.7351 -2.97082 3.15328
rclavicle -3.57812e-015 -1.90833e-014
rhumerus -43.8502 0.217825 -77.4598
rradius 57.9951
rwrist 5.31313
rhand -21.6392 6.66501
rfingers 7.12502
rthumb 4.75712 -23.2616
lclavicle -3.57812e-015 -1.90833e-014
lhumerus -64.2272 1.09034 54.3114
lradius 62.1887
lwrist 3.22777
lhand -26.7864 23.5097
lfingers 7.12502
lthumb -0.213803 53.4894
rfemur -34.7337 -1.99064 19.8092
rtibia 50.2937
rfoot -8.73796 -3.14756
rtoes 17.8575
lfemur -35.6087 2.24127 -21.2625
ltibia 49.7605
lfoot -8.837 -0.553505
ltoes -3.69949
310
root 0.897913 16.33 3.08224 1.01826 -0.767259 1.20663
lowerback 18.467 1.28013 -0.387023
upperback 2.54439 1.89013 3.38052
thorax -7.73268 0.972203 3.40166
lowerneck -11.3776 -4.43891 -12.4499
upperneck 30.1787 -4.84838 4.86632
head 12.3051 -2.95968 3.31919
rclavicle -1.74931e-014 6.36111e-015
rhumerus -41.562 -0.977264 -77.2706
rradius 55.4172
rwrist 5.59645
rhand -23.6575 8.13469
rfingers 7.12502
rthumb 2.80818 -21.8266
lclavicle -1.74931e-014 6.36111e-015
lhumerus -62.9141 4.26311 53.3705
lradius 61.0283
lwrist 3.68114
lhand -27.7767 23.3666
lfingers 7.12502
lthumb -1.1702 53.3432
rfemur -37.4384 -1.63849 19.6502
rtibia 54.7431
rfoot -10.3138 -4.32658
rtoes 14.6778
lfemur -38.2384 1.99182 -21.7613
ltibia 54.0795
lfoot -10.2505 1.11185
ltoes -2.3438
311
root 0.884423 16.092 3.14922 1.33179 -0.846624 1.66532
lowerback 18.8827 1.39854 -1.00803
upperback 2.48169 1.91648 3.26403
thorax -8.04505 1.00486 3.62209
lowerneck -11.6766 -4.52927 -12.3891
upperneck 28.8737 -4.96894 5.0119
head 11.8561 -2.95711 3.31791
rclavicle -2.06736e-014 -3.18055e-014
rhumerus -38.944 -2.61346 -76.9511
rradius 52.3264
rwrist 7.17415
rhand -24.2441 8.49711
rfingers 7.12502
rthumb 2.24163 -21.4709
lclavicle -2.06736e-014 -3.18055e-014
lhumerus -60.8544 7.68965 52.6242
lradius 58.8437
lwrist 4.08143
lhand -28.805 21.9023
lfingers 7.12502
lthumb -2.1634 51.871
rfemur -40.3005 -1.53627 19.5253
rtibia 59.2128
rfoot -11.5572 -5.60916
rtoes 7.40596
lfemur -40.7278 1.74108 -22.3115
ltibia 58.1001
lfoot -11.7785 1.85171
ltoes -0.930594
312
root 0.863002 15.8592 3.22705 1.28427 -0.795223 1.71764
lowerback 19.4625 1.51718 -1.22213
upperback 2.55359 2.03394 3.32352
thorax -8.30063 1.07034 3.77551
lowerneck -11.9875 -4.58362 -12.3226
upperneck 27.7332 -5.00605 5.05538
head 11.475 -2.93301 3.29287
rclavicle 1.78906e-014 2.38542e-014
rhumerus -36.2342 -4.6925 -76.4744
rradius 48.3791
rwrist 8.10391
rhand -24.2809 9.842
rfingers 7.12502
rthumb 2.20605 -20.1263
lclavicle 1.78906e-014 2.38542e-014
lhumerus -58.3381 11.099 52.4173
lradius 56.2942
lwrist 5.131
lhand -29.4972 22.6686
lfingers 7.12502
lthumb -2.8319 52.6295
rfemur -42.5461 -1.32512 19.7003
rtibia 63.215
rfoot -12.6654 -6.71322
rtoes 1.2662
lfemur -42.5497 1.50055 -22.2829
ltibia 61.6179
lfoot -13.1227 2.38258
ltoes -2.17706
313
root 0.85739 15.6674 3.30776 1.12679 -0.810032 1.78405
lowerback 20.0365 1.67939 -1.22462
upperback 2.53515 2.2547 3.38865
thorax -8.65342 1.18075 3.78432
lowerneck -12.125 -4.62708 -12.2781
upperneck 26.8258 -4.99368 4.90102
head 11.1489 -2.91945 3.21225
rclavicle -5.56597e-015 -3.18055e-015
rhumerus -33.8519 -7.29573 -75.6752
rradius 43.9773
rwrist 9.23583
rhand -22.4492 10.8006
rfingers 7.12502
rthumb 3.97497 -19.142
lclavicle -5.56597e-015 -3.18055e-015
lhumerus -55.8598 13.9436 52.9392
lradius 53.6837
lwrist 7.32479
lhand -31.0771 24.7392
lfingers 7.12502
lthumb -4.35754 54.6744
rfemur -44.0831 -1.12159 19.7067
rtibia 66.4379
rfoot -13.6936 -7.60159
rtoes -0.178959
lfemur -43.7969 1.20627 -22.2425
ltibia 64.5111
lfoot -14.3757 2.95253
ltoes -2.86587
314
root 0.867 15.5294 3.39052 1.01783 -0.629614 2.03954
lowerback 20.3023 1.72893 -1.12938
upperback 2.52515 2.33968 3.36435
thorax -8.81072 1.21905 3.67675
lowerneck -12.3545 -4.66569 -12.0429
upperneck 26.2601 -4.9313 4.43627
head 10.9571 -2.90597 2.99787
rclavicle 1.35174e-014 2.8625e-014
rhumerus -31.77 -10.5532 -74.6643
rradius 39.5117
rwrist 10.8637
rhand -16.1745 9.08572
rfingers 7.12502
rthumb 10.0318 -20.6552
lclavicle 1.35174e-014 2.8625e-014
lhumerus -53.3016 16.7341 53.7604
lradius 50.5229
lwrist 9.64227
lhand -31.9801 25.3464
lfingers 7.12502
lthumb -5.22954 55.2618
rfemur -45.0453 -1.34384 19.4573
rtibia 68.9291
rfoot -14.7553 -8.26636
rtoes 0.220687
lfemur -44.5819 0.827276 -22.5271
ltibia 66.7542
lfoot -15.6512 3.15859
ltoes -3.1564
315
root 0.877997 15.407 3.47338 0.827215 -0.181254 2.03127
lowerback 20.4852 1.70682 -0.719812
upperback 2.58602 2.41271 3.48455
thorax -8.83751 1.24148 3.55101
lowerneck -12.4821 -4.79773 -12.0425
upperneck 25.9084 -4.9838 4.04021
head 10.8491 -2.96493 2.83829
rclavicle 6.75868e-015 1.11319e-014
rhumerus -30.1764 -14.5693 -73.3176
rradius 35.4914
rwrist 12.4823
rhand -22.8321 16.6555
rfingers 7.12502
rthumb 3.60525 -13.2937
lclavicle 6.75868e-015 1.11319e-014
lhumerus -50.2848 20.2337 54.7217
lradius 46.2301
lwrist 11.5812
lhand -31.213 25.2746
lfingers 7.12502
lthumb -4.48881 55.2071
rfemur -45.513 -1.89391 19.4877
rtibia 70.8468
rfoot -15.8281 -8.53453
rtoes 0.588463
lfemur -45.0415 0.500505 -22.5725
ltibia 68.5323
lfoot -16.7652 3.34446
ltoes -3.27435
316
root 0.887877 15.2839 3.54839 0.551884 0.176364 1.75953
lowerback 20.8119 1.76968 -0.0778875
upperback 2.67176 2.65743 3.6618
thorax -8.91793 1.33843 3.30412
lowerneck -12.6818 -5.03158 -12.0874
upperneck 25.6828 -5.22221 3.86096
head 10.8256 -3.08953 2.74062
rclavicle -1.66979e-014 -2.38542e-014
rhumerus -29.094 -18.8367 -71.9984
rradius 32.1751
rwrist 12.5496
rhand -19.1786 8.00222
rfingers 7.12502
rthumb 7.13279 -21.8576
lclavicle -1.66979e-014 -2.38542e-014
lhumerus -46.9622 23.8051 56.1158
lradius 41.7879
lwrist 13.9113
lhand -31.8419 28.4293
lfingers 7.12502
lthumb -5.09609 58.348
rfemur -45.6739 -2.30761 19.8253
rtibia 72.2924
rfoot -16.7701 -8.8134
rtoes 1.07159
lfemur -45.3953 0.453421 -22.3378
ltibia 69.9942
lfoot -17.7593 3.42064
ltoes -2.34202
